<svg xmlns="http://www.w3.org/2000/svg" viewBox="0 0 41.7 27.7">
    <g id="Layer_1-2" data-name="Layer 1">
        <path d="M4.53,12.86V4H8.22a7.78,7.78,0,0,1,3.18.54,4.16,4.16,0,0,1,2.5,3.9c0,2.93-2.11,4.44-5.49,4.44Zm4-2a2.28,2.28,0,0,0,2.59-2.44A2.3,2.3,0,0,0,8.56,6H7.3v4.9Z"/>
        <path d="M23.44,12.86l.08-6.65,0,0L21.6,12.86H20.1L18.18,6.13l.07,6.73H16.17V4h2.91l1.76,5.84h0L22.61,4h2.92v8.88Z"/>
        <path d="M34.74,7.39a2.36,2.36,0,0,0-2.2-1.49,2.43,2.43,0,0,0-2.42,2.5,2.45,2.45,0,0,0,2.44,2.54,2.39,2.39,0,0,0,2.18-1.45h2.43a4.65,4.65,0,0,1-4.59,3.37,4.86,4.86,0,0,1-3.38-1.29,4.17,4.17,0,0,1-1.4-3.28A4.57,4.57,0,0,1,32.47,4,4.8,4.8,0,0,1,35.63,5a4,4,0,0,1,1.54,2.36Z"/>
        <path d="M4.53,23.72V14.85H8.22a7.78,7.78,0,0,1,3.18.54,4.15,4.15,0,0,1,2.5,3.89c0,2.93-2.11,4.44-5.49,4.44Zm4-2a2.27,2.27,0,0,0,2.59-2.43,2.3,2.3,0,0,0-2.57-2.46H7.3v4.89Z"/>
        <path d="M23.1,18.26a2.36,2.36,0,0,0-2.19-1.49,2.42,2.42,0,0,0-2.43,2.49,2.45,2.45,0,0,0,2.44,2.54,2.36,2.36,0,0,0,2.18-1.44h2.43A4.63,4.63,0,0,1,21,23.72a4.88,4.88,0,0,1-3.39-1.28,4.21,4.21,0,0,1-1.39-3.28,4.56,4.56,0,0,1,4.67-4.31A4.77,4.77,0,0,1,24,15.9a3.93,3.93,0,0,1,1.53,2.36Z"/>
        <path d="M35.08,23.72l.07-6.64,0,0-1.9,6.67h-1.5L29.81,17l.08,6.73H27.8V14.85h2.91l1.77,5.84h0l1.74-5.84h2.93v8.87Z"/>
        <path d="M39.43,0H0V27.7H41.7V0H39.43Zm0,25.71H2.27V2H39.43Z"/>
    </g>
</svg>
